HIERARCHY
ROOT reference
{
  OFFSET 0 0 0
  CHANNELS 6 Xposition Yposition Zposition Zrotation Xrotation Yrotation
  JOINT Hips
  {
    OFFSET 352.076 86.5813 226.294
    CHANNELS 3 Zrotation Xrotation Yrotation
    JOINT RightUpLeg
    {
      OFFSET -9.24446 -1.53332 -0.0100408
      CHANNELS 3 Zrotation Xrotation Yrotation
      JOINT RightLeg
      {
        OFFSET 0.0379954 -41.8775 0.0555708
        CHANNELS 3 Zrotation Xrotation Yrotation
        JOINT RightFoot
        {
          OFFSET 0.0737403 -43.7597 -0.208372
          CHANNELS 3 Zrotation Xrotation Yrotation
          End Site
          {
            OFFSET 0 -7.69 17.5
          }
        }
      }
    }
    JOINT LeftUpLeg
    {
      OFFSET 9.31004 -1.65148 -0.0333589
      CHANNELS 3 Zrotation Xrotation Yrotation
      JOINT LeftLeg
      {
        OFFSET 0.0881386 -41.8624 -0.0616493
        CHANNELS 3 Zrotation Xrotation Yrotation
        JOINT LeftFoot
        {
          OFFSET 0.763074 -39.9619 0.249975
          CHANNELS 3 Zrotation Xrotation Yrotation
          End Site
          {
            OFFSET 0 -7.69 17.5
          }
        }
      }
    }
    JOINT Spine
    {
      OFFSET 0.105097 14.2958 0.096313
      CHANNELS 3 Zrotation Xrotation Yrotation
      JOINT Spine1
      {
        OFFSET 0.0609256 9.72986 0.0283835
        CHANNELS 3 Zrotation Xrotation Yrotation
        JOINT Spine2
        {
          OFFSET 0.0349843 10.1145 -0.0203086
          CHANNELS 3 Zrotation Xrotation Yrotation
          JOINT Spine3
          {
            OFFSET 0.0323734 9.71864 0.0196425
            CHANNELS 3 Zrotation Xrotation Yrotation
            JOINT Neck
            {
              OFFSET 0.219168 10.3708 0.0833364
              CHANNELS 3 Zrotation Xrotation Yrotation
              JOINT Head
              {
                OFFSET 0.200748 9.48753 0.0966912
                CHANNELS 3 Zrotation Xrotation Yrotation
                End Site
                {
                  OFFSET 0 15.95 0
                }
              }
            }
            JOINT RightShoulder
            {
              OFFSET -3.14734 6.94135 0.063802
              CHANNELS 3 Zrotation Xrotation Yrotation
              JOINT RightArm
              {
                OFFSET -12.765 0.137663 0.228635
                CHANNELS 3 Zrotation Xrotation Yrotation
                JOINT RightForeArm
                {
                  OFFSET -26.5344 -0.389186 -0.00603507
                  CHANNELS 3 Zrotation Xrotation Yrotation
                  JOINT RightHand
                  {
                    OFFSET -26.1352 -0.0585664 0.0704552
                    CHANNELS 3 Zrotation Xrotation Yrotation
                    JOINT RightHandThumb1
                    {
                      OFFSET -2.48905 0.190105 3.12053
                      CHANNELS 3 Zrotation Xrotation Yrotation
                      JOINT RightHandThumb2
                      {
                        OFFSET -3.68274 0 0
                        CHANNELS 3 Zrotation Xrotation Yrotation
                        JOINT RightHandThumb3
                        {
                          OFFSET -2.55832 0 0
                          CHANNELS 3 Zrotation Xrotation Yrotation
                          End Site
                          {
                            OFFSET -2.194 0 0
                          }
                        }
                      }
                    }
                    JOINT RightInHandIndex
                    {
                      OFFSET -3.22368 0.508421 1.97842
                      CHANNELS 3 Zrotation Xrotation Yrotation
                      JOINT RightHandIndex1
                      {
                        OFFSET -5.21684 -0.091368 0.999158
                        CHANNELS 3 Zrotation Xrotation Yrotation
                        JOINT RightHandIndex2
                        {
                          OFFSET -3.61937 0 0
                          CHANNELS 3 Zrotation Xrotation Yrotation
                          JOINT RightHandIndex3
                          {
                            OFFSET -2.0521 0 0
                            CHANNELS 3 Zrotation Xrotation Yrotation
                            End Site
                            {
                              OFFSET -1.805 0 0
                            }
                          }
                        }
                      }
                    }
                    JOINT RightInHandMiddle
                    {
                      OFFSET -3.38211 0.517263 0.756737
                      CHANNELS 3 Zrotation Xrotation Yrotation
                      JOINT RightHandMiddle1
                      {
                        OFFSET -5.17411 -0.084 0.313895
                        CHANNELS 3 Zrotation Xrotation Yrotation
                        JOINT RightHandMiddle2
                        {
                          OFFSET -3.94947 0 0
                          CHANNELS 3 Zrotation Xrotation Yrotation
                          JOINT RightHandMiddle3
                          {
                            OFFSET -2.47579 0 0
                            CHANNELS 3 Zrotation Xrotation Yrotation
                            End Site
                            {
                              OFFSET -1.975 0 0
                            }
                          }
                        }
                      }
                    }
                    JOINT RightInHandRing
                    {
                      OFFSET -3.36516 0.537895 -0.128947
                      CHANNELS 3 Zrotation Xrotation Yrotation
                      JOINT RightHandRing1
                      {
                        OFFSET -4.63474 -0.022105 -0.478947
                        CHANNELS 3 Zrotation Xrotation Yrotation
                        JOINT RightHandRing2
                        {
                          OFFSET -3.44238 0 0
                          CHANNELS 3 Zrotation Xrotation Yrotation
                          JOINT RightHandRing3
                          {
                            OFFSET -2.3881 0 0
                            CHANNELS 3 Zrotation Xrotation Yrotation
                            End Site
                            {
                              OFFSET -1.857 0 0
                            }
                          }
                        }
                      }
                    }
                    JOINT RightInHandPinky
                    {
                      OFFSET -3.16105 0.469368 -1.20179
                      CHANNELS 3 Zrotation Xrotation Yrotation
                      JOINT RightHandPinky1
                      {
                        OFFSET -4.14105 -0.022105 -1.09053
                        CHANNELS 3 Zrotation Xrotation Yrotation
                        JOINT RightHandPinky2
                        {
                          OFFSET -2.75653 0 0
                          CHANNELS 3 Zrotation Xrotation Yrotation
                          JOINT RightHandPinky3
                          {
                            OFFSET -1.74189 0 0
                            CHANNELS 3 Zrotation Xrotation Yrotation
                            End Site
                            {
                              OFFSET -1.645 0 0
                            }
                          }
                        }
                      }
                    }
                  }
                }
              }
            }
            JOINT LeftShoulder
            {
              OFFSET 3.26179 6.89719 -0.0373062
              CHANNELS 3 Zrotation Xrotation Yrotation
              JOINT LeftArm
              {
                OFFSET 12.4839 0.0196156 -0.0323257
                CHANNELS 3 Zrotation Xrotation Yrotation
                JOINT LeftForeArm
                {
                  OFFSET 26.5039 -0.120667 0.247609
                  CHANNELS 3 Zrotation Xrotation Yrotation
                  JOINT LeftHand
                  {
                    OFFSET 25.9984 -0.032285 0.00286418
                    CHANNELS 3 Zrotation Xrotation Yrotation
                    JOINT LeftHandThumb1
                    {
                      OFFSET 2.48905 0.190105 3.12053
                      CHANNELS 3 Zrotation Xrotation Yrotation
                      JOINT LeftHandThumb2
                      {
                        OFFSET 3.68274 0 0
                        CHANNELS 3 Zrotation Xrotation Yrotation
                        JOINT LeftHandThumb3
                        {
                          OFFSET 2.55832 0 0
                          CHANNELS 3 Zrotation Xrotation Yrotation
                          End Site
                          {
                            OFFSET 2.194 0 0
                          }
                        }
                      }
                    }
                    JOINT LeftInHandIndex
                    {
                      OFFSET 3.22368 0.508421 1.97842
                      CHANNELS 3 Zrotation Xrotation Yrotation
                      JOINT LeftHandIndex1
                      {
                        OFFSET 5.21684 -0.091368 0.999158
                        CHANNELS 3 Zrotation Xrotation Yrotation
                        JOINT LeftHandIndex2
                        {
                          OFFSET 3.61937 0 0
                          CHANNELS 3 Zrotation Xrotation Yrotation
                          JOINT LeftHandIndex3
                          {
                            OFFSET 2.0521 0 0
                            CHANNELS 3 Zrotation Xrotation Yrotation
                            End Site
                            {
                              OFFSET 1.805 0 0
                            }
                          }
                        }
                      }
                    }
                    JOINT LeftInHandMiddle
                    {
                      OFFSET 3.38211 0.517263 0.756737
                      CHANNELS 3 Zrotation Xrotation Yrotation
                      JOINT LeftHandMiddle1
                      {
                        OFFSET 5.17411 -0.084 0.313895
                        CHANNELS 3 Zrotation Xrotation Yrotation
                        JOINT LeftHandMiddle2
                        {
                          OFFSET 3.94947 0 0
                          CHANNELS 3 Zrotation Xrotation Yrotation
                          JOINT LeftHandMiddle3
                          {
                            OFFSET 2.47579 0 0
                            CHANNELS 3 Zrotation Xrotation Yrotation
                            End Site
                            {
                              OFFSET 1.975 0 0
                            }
                          }
                        }
                      }
                    }
                    JOINT LeftInHandRing
                    {
                      OFFSET 3.36516 0.537895 -0.128947
                      CHANNELS 3 Zrotation Xrotation Yrotation
                      JOINT LeftHandRing1
                      {
                        OFFSET 4.63474 -0.022105 -0.478947
                        CHANNELS 3 Zrotation Xrotation Yrotation
                        JOINT LeftHandRing2
                        {
                          OFFSET 3.44238 0 0
                          CHANNELS 3 Zrotation Xrotation Yrotation
                          JOINT LeftHandRing3
                          {
                            OFFSET 2.3881 0 0
                            CHANNELS 3 Zrotation Xrotation Yrotation
                            End Site
                            {
                              OFFSET 1.857 0 0
                            }
                          }
                        }
                      }
                    }
                    JOINT LeftInHandPinky
                    {
                      OFFSET 3.16105 0.469368 -1.20179
                      CHANNELS 3 Zrotation Xrotation Yrotation
                      JOINT LeftHandPinky1
                      {
                        OFFSET 4.14105 -0.022105 -1.09053
                        CHANNELS 3 Zrotation Xrotation Yrotation
                        JOINT LeftHandPinky2
                        {
                          OFFSET 2.75653 0 0
                          CHANNELS 3 Zrotation Xrotation Yrotation
                          JOINT LeftHandPinky3
                          {
                            OFFSET 1.74189 0 0
                            CHANNELS 3 Zrotation Xrotation Yrotation
                            End Site
                            {
                              OFFSET 1.645 0 0
                            }
                          }
                        }
                      }
                    }
                  }
                }
              }
            }
          }
        }
      }
    }
  }
}
MOTION
Frames: 2
Frame Time: 0.00833333
9.000000000000000000e+02 0.000000000000000000e+00 0.000000000000000000e+00 0.000000000000000000e+00 0.000000000000000000e+00 0.000000000000000000e+00 3.697864155222690297e+00 2.856101174487371885e+00 -2.528014876859771221e+01 1.396341708576776064e+01 -1.747067502532222250e+01 9.598261555086235575e+00 -2.689317128663037071e+00 5.693082903898415204e+00 9.332800749328983514e+00 1.818683949813140188e+00 8.660827290550113799e-01 5.746152254595721764e+00 1.818641889276847579e+01 -6.856315446986796402e+00 1.449717531589008956e+01 -2.331612730471226413e+00 8.855622331543363757e+00 3.943952686887978842e+00 3.251475230987161069e+00 -3.054485583281760341e+00 9.707131233438339279e+00 3.108418848637521936e+00 -9.852930125193016808e-01 -2.105499135983862047e+01 6.907917642355438925e-01 -4.388603083188196696e-01 -5.389606999299395795e+00 1.177315188090382048e+00 -7.459704447529981186e-01 -8.097238153378702563e+00 -2.775466628185452311e-01 6.789635419296502494e-02 1.656611264138418971e+00 -1.123362133733976087e+00 2.290127150854007754e-01 1.802249929021741437e+01 -4.989327194150146916e+00 -1.578824502734910429e-01 2.127922731774047094e+01 7.409920350692878799e+00 6.035776242706969441e+00 -1.323082794482858837e+01 1.086936652640270751e+01 -1.437837265393479669e+01 -2.719876620052133021e+01 1.189868665767015443e+01 -7.175456775430041567e+00 2.673023051213269241e+01 -7.851093611283344487e+00 -1.168428483688776609e+01 1.199061053120426834e+01 0.000000000000000000e+00 0.000000000000000000e+00 0.000000000000000000e+00 4.243412565671223198e-15 9.180202480457572759e-16 0.000000000000000000e+00 1.721412549145600171e-15 9.914407635253949850e-16 0.000000000000000000e+00 2.271801093243356605e-16 9.867285720083838785e-16 -9.947688286009960616e-17 0.000000000000000000e+00 0.000000000000000000e+00 0.000000000000000000e+00 0.000000000000000000e+00 -2.208210814408539204e-15 -2.257866249758451609e-15 0.000000000000000000e+00 2.480033654443652220e-15 9.872153858561670490e-16 2.271801093243356605e-16 9.867285720083838785e-16 -9.947688286009960616e-17 0.000000000000000000e+00 8.333798731392287515e-16 -2.139113164353258290e-15 0.000000000000000000e+00 2.360091507794579972e-16 1.382879903180544897e-15 0.000000000000000000e+00 6.451769461497445761e-16 1.606786331256730654e-15 2.271801093243356605e-16 9.867285720083838785e-16 -9.947688286009960616e-17 0.000000000000000000e+00 0.000000000000000000e+00 0.000000000000000000e+00 0.000000000000000000e+00 3.070510757690489925e-16 4.428260302126797243e-18 0.000000000000000000e+00 -8.169904451527291982e-16 1.853546720612367589e-15 2.271801093243356605e-16 9.867285720083838785e-16 -9.947688286009960616e-17 0.000000000000000000e+00 0.000000000000000000e+00 0.000000000000000000e+00 0.000000000000000000e+00 2.159210250303259618e-15 -1.202381688526512863e-15 0.000000000000000000e+00 1.432971006272636076e-15 -1.584698726355380898e-15 5.057590235528926392e+00 -5.432532124464508616e-01 -8.444156386155624361e+00 2.407223971823844977e+01 9.417240455353388384e+00 -1.914877923447870245e+01 2.950450751481059797e+01 1.708675764712645062e+01 5.488375534811463297e+01 -3.585623603976874740e+00 -3.523116562056153311e-01 5.875345069075276427e+00 0.000000000000000000e+00 0.000000000000000000e+00 0.000000000000000000e+00 6.421734195104572938e-16 4.529862755010515819e-16 0.000000000000000000e+00 2.066215388261746098e-15 -1.669298186097477944e-17 0.000000000000000000e+00 6.020700954379664258e-16 2.202161701252038182e-15 -2.045490326400564925e-15 0.000000000000000000e+00 0.000000000000000000e+00 0.000000000000000000e+00 0.000000000000000000e+00 -4.886946690230096788e-16 3.784594000201754629e-15 0.000000000000000000e+00 -1.536150885661079798e-15 2.284631695309367089e-15 6.020700954379664258e-16 2.202161701252038182e-15 -2.045490326400564925e-15 0.000000000000000000e+00 -9.631345004268385464e-16 3.732868346705107615e-15 0.000000000000000000e+00 1.328231068676717479e-15 4.900383016151363410e-15 0.000000000000000000e+00 -1.075059115470595487e-15 4.348649925908723768e-15 6.020700954379664258e-16 2.202161701252038182e-15 -2.045490326400564925e-15 0.000000000000000000e+00 0.000000000000000000e+00 0.000000000000000000e+00 0.000000000000000000e+00 2.860445244132957294e-16 4.092117860553734909e-15 0.000000000000000000e+00 1.669126376776637258e-15 1.061728531175900586e-15 6.020700954379664258e-16 2.202161701252038182e-15 -2.045490326400564925e-15 0.000000000000000000e+00 0.000000000000000000e+00 0.000000000000000000e+00 0.000000000000000000e+00 -9.200840164850391548e-16 4.053331862565202505e-15 0.000000000000000000e+00 -6.067987888152077754e-16 -1.042785383570206740e-15
9.000000000000000000e+02 0.000000000000000000e+00 0.000000000000000000e+00 0.000000000000000000e+00 0.000000000000000000e+00 0.000000000000000000e+00 3.711228866622578781e+00 2.905777040489247565e+00 -2.494687824681536625e+01 1.349438102336301171e+01 -1.744317481241554901e+01 9.272903498046723314e+00 -2.594334255299172831e+00 5.639325044388384001e+00 9.194875071137163403e+00 1.886975097387446176e+00 7.486525727395250129e-01 5.593823428981759882e+00 1.805389644662074389e+01 -7.107329530608395451e+00 1.437041544880593591e+01 -2.173625677222728925e+00 8.722008739884776318e+00 3.731574438295288232e+00 3.250831453872107701e+00 -2.914033070269933745e+00 9.656809895452900250e+00 3.130647924782425040e+00 -8.468294442692281265e-01 -2.094686443525611352e+01 7.001713242724190156e-01 -4.053029195303361476e-01 -5.364909892154770432e+00 1.191818837066377368e+00 -6.927384962178602112e-01 -8.042007332328493519e+00 -2.723192490377447927e-01 7.339597113897694536e-02 1.628591116693973939e+00 -1.115812167090040274e+00 2.720920600512062304e-01 1.789974890813415342e+01 -4.870761115857398238e+00 -1.853723043564574624e-01 2.082158677604705943e+01 7.409517544169347048e+00 5.938794045372295827e+00 -1.308279672796597382e+01 1.117360752684986913e+01 -1.393529447133575339e+01 -2.690431818674153419e+01 1.219367619457104368e+01 -7.182189924737175879e+00 2.562841059467842086e+01 -7.774013211309213744e+00 -1.169526075442968960e+01 1.162194381390398057e+01 0.000000000000000000e+00 0.000000000000000000e+00 0.000000000000000000e+00 4.224548340534017702e-15 9.571252676385907308e-16 0.000000000000000000e+00 1.706813619344852950e-15 1.030939163628118720e-15 0.000000000000000000e+00 2.786180516417980091e-16 9.655072002037733186e-16 -1.297477145483193530e-16 0.000000000000000000e+00 0.000000000000000000e+00 0.000000000000000000e+00 0.000000000000000000e+00 -2.219041029967403947e-15 -2.225725541771019942e-15 0.000000000000000000e+00 2.444082997669702046e-15 1.021475273450869514e-15 2.786180516417980091e-16 9.655072002037733186e-16 -1.297477145483193530e-16 0.000000000000000000e+00 8.618560527859444147e-16 -2.104572775215599326e-15 0.000000000000000000e+00 1.650386334216589977e-16 1.219517525728863099e-15 0.000000000000000000e+00 6.434124250199654718e-16 1.597084251605010022e-15 2.786180516417980091e-16 9.655072002037733186e-16 -1.297477145483193530e-16 0.000000000000000000e+00 0.000000000000000000e+00 0.000000000000000000e+00 0.000000000000000000e+00 3.025532049946226512e-16 -1.305297648523004051e-16 0.000000000000000000e+00 -8.100174680668930564e-16 1.722183278309041262e-15 2.786180516417980091e-16 9.655072002037733186e-16 -1.297477145483193530e-16 0.000000000000000000e+00 0.000000000000000000e+00 0.000000000000000000e+00 0.000000000000000000e+00 2.148076452231922422e-15 -1.283805110440262031e-15 0.000000000000000000e+00 1.507667062707258647e-15 -1.642988191125492733e-15 5.194209912503656490e+00 -5.686374806306326857e-01 -8.311450445010816424e+00 2.394640952241682541e+01 9.737453347289283911e+00 -1.880484309753164851e+01 2.816722434960598775e+01 1.661144708223246980e+01 5.451687069620786019e+01 -3.528205338954051307e+00 -4.563607248681033068e-01 6.012056214293637346e+00 0.000000000000000000e+00 0.000000000000000000e+00 0.000000000000000000e+00 6.641642005022869291e-16 4.040187442502833934e-16 0.000000000000000000e+00 2.018831433895623376e-15 -5.882184724587624935e-17 0.000000000000000000e+00 5.952466978228791533e-16 2.155726147202860876e-15 -2.049744104593268942e-15 0.000000000000000000e+00 0.000000000000000000e+00 0.000000000000000000e+00 0.000000000000000000e+00 -5.063607116989348033e-16 3.713524621405550156e-15 0.000000000000000000e+00 -1.548914438424347320e-15 2.292813850893026018e-15 5.952466978228791533e-16 2.155726147202860876e-15 -2.049744104593268942e-15 0.000000000000000000e+00 -1.009824432856069625e-15 3.642915558155024391e-15 0.000000000000000000e+00 1.340198527249776510e-15 4.888369179653436387e-15 0.000000000000000000e+00 -1.117694343090037222e-15 4.323731485367150342e-15 5.952466978228791533e-16 2.155726147202860876e-15 -2.049744104593268942e-15 0.000000000000000000e+00 0.000000000000000000e+00 0.000000000000000000e+00 0.000000000000000000e+00 2.824868426869742415e-16 4.073875127042976920e-15 0.000000000000000000e+00 1.618464978455863908e-15 1.016006015003388201e-15 5.952466978228791533e-16 2.155726147202860876e-15 -2.049744104593268942e-15 0.000000000000000000e+00 0.000000000000000000e+00 0.000000000000000000e+00 0.000000000000000000e+00 -8.667447418220884298e-16 4.022244736982875637e-15 0.000000000000000000e+00 -5.959294600948807392e-16 -1.065248285383447554e-15
